<?xml version="1.0" encoding="UTF-8"?><!DOCTYPE svg PUBLIC "-//W3C//DTD SVG 1.1//EN" "http://www.w3.org/Graphics/SVG/1.1/DTD/svg11.dtd"><svg xmlns="http://www.w3.org/2000/svg" xmlns:xlink="http://www.w3.org/1999/xlink"><defs>
        <linearGradient x1="-1.11022302e-14%" y1="50%" x2="100%" y2="50%" id="linearGradient-1">
            <stop stop-color="#FFFFFF" stop-opacity="0.5" offset="0%"/>
            <stop stop-color="#000000" stop-opacity="0.5" offset="100%"/>
        </linearGradient>
        <rect id="path-2" x="2.48689958e-14" y="0" width="9.53731343" height="100" rx="2.10526316"/>
    </defs><symbol id="apple" viewBox="0 0 100 100">
    <!-- Generator: sketchtool 48.1 (47250) - http://www.bohemiancoding.com/sketch -->
    <title>apple</title>
    <desc>Created with sketchtool.</desc>
    
    <g id="Page-1" stroke="none" stroke-width="1" fill-rule="evenodd">
        <g id="apple">
            <g id="!group" transform="translate(6.000000, 2.000000)">
                <path d="M44.5,93 C69.0766714,93 89,78.0766714 89,48.5 C89,25.0832141 76.5112815,12.2395869 59.1121585,9.15507429 C54.535245,8.34368007 49.6185435,11 44.5,11 C39.0718966,11 33.8707876,8.38650736 29.0611911,9.30744863 C12.0945127,12.5562273 0,25.4557523 0,48.5 C1.8110488e-15,78.0766714 19.9233286,93 44.5,93 Z" id="Oval-2" fill="#F63232"/>
                <ellipse id="Oval-3" fill-opacity="0.189999998" fill="#000000" cx="45" cy="25" rx="13" ry="6"/>
                <path d="M45.4310345,27 C42.9478402,17.5402299 38.804162,9.5862069 33,3.13793103 C33,3.13793103 44.4310345,0.5 44.4310345,0.5 C46.1896552,7.53448276 46.5229885,16.3678161 45.4310345,27 Z" id="Path-6" fill="#6E5D2F"/>
            </g>
        </g>
    </g>
</symbol><symbol id="backward" viewBox="0 0 100 100">
    <!-- Generator: sketchtool 48.1 (47250) - http://www.bohemiancoding.com/sketch -->
    <title>backward</title>
    <desc>Created with sketchtool.</desc>
    
    <g id="Page-1" stroke="none" stroke-width="1" fill-rule="evenodd">
        <g id="backward">
            <path d="M37.3559958,23.372435 L80.5077013,47.4662285 C81.9155597,48.2523075 82.4156776,50.0238429 81.6247459,51.4230636 C81.3619436,51.8879816 80.9754893,52.2720649 80.5077013,52.5332547 L37.3559958,76.6270482 C35.9481374,77.4131273 34.1656658,76.9160778 33.3747341,75.5168571 C33.1290472,75.0822176 33,74.592068 33,74.0935351 L33,25.9059481 C33,24.3010373 34.3090689,23 35.9238873,23 C36.4254978,23 36.9186732,23.1282555 37.3559958,23.372435 Z" id="Path-3" transform="translate(57.500000, 50.000000) rotate(-180.000000) translate(-57.500000, -50.000000) "/>
            <rect id="Rectangle-3" transform="translate(26.000000, 50.000000) rotate(-180.000000) translate(-26.000000, -50.000000) " x="18" y="23" width="16" height="54" rx="3"/>
        </g>
    </g>
</symbol><symbol id="balloon-left" viewBox="0 0 30 30">
    <!-- Generator: sketchtool 48.1 (47250) - http://www.bohemiancoding.com/sketch -->
    <title>balloon-left</title>
    <desc>Created with sketchtool.</desc>
    
    <g id="Page-1" stroke="none" stroke-width="1" fill-rule="evenodd">
        <g id="balloon-left">
            <path d="M10.8070724,25.0374068 L0,29 L5.6176139,20.172321 C4.5712263,18.559984 4,16.8177516 4,15 C4,6.71572875 15.8644541,0 30.5,0 C45.1355459,0 57,6.71572875 57,15 C57,23.2842712 45.1355459,30 30.5,30 C22.6835229,30 15.6574608,28.0844327 10.8070724,25.0374068 Z" id="Combined-Shape"/>
        </g>
    </g>
</symbol><symbol id="balloon-right" viewBox="0 0 27 30">
    <!-- Generator: sketchtool 48.1 (47250) - http://www.bohemiancoding.com/sketch -->
    <title>balloon-right</title>
    <desc>Created with sketchtool.</desc>
    
    <g id="Page-1" stroke="none" stroke-width="1" fill-rule="evenodd">
        <g id="balloon-right">
            <path d="M-19.1929276,25.0374068 L-30,29 L-24.3823861,20.172321 C-25.4287737,18.559984 -26,16.8177516 -26,15 C-26,6.71572875 -14.1355459,0 0.5,0 C15.1355459,0 27,6.71572875 27,15 C27,23.2842712 15.1355459,30 0.5,30 C-7.31647712,30 -14.3425392,28.0844327 -19.1929276,25.0374068 Z" id="Combined-Shape"/>
        </g>
    </g>
</symbol><symbol id="book" viewBox="0 0 100 100">
    <!-- Generator: sketchtool 48.1 (47250) - http://www.bohemiancoding.com/sketch -->
    <title>book</title>
    <desc>Created with sketchtool.</desc>
    
    <g id="Page-1" stroke="none" stroke-width="1" fill-rule="evenodd">
        <g id="book" fill-rule="nonzero">
            <g transform="translate(9.000000, 13.000000)" id="Shape">
                <path d="M80.7293021,17.0898438 C82.0423566,18.9453125 82.3377939,21.0449219 81.6156139,23.3886719 L68.0747394,67.6269531 C67.4510385,69.7102865 66.1954302,71.4599609 64.3079143,72.8759766 C62.4203985,74.2919922 60.4097838,75 58.2760702,75 L12.8279715,75 C10.3003416,75 7.86298421,74.1292318 5.5158993,72.3876953 C3.16881439,70.6461589 1.53570287,68.5058594 0.616564719,65.9667969 C-0.171267978,63.7858073 -0.20409434,61.71875 0.518085632,59.765625 C0.518085632,59.6354167 0.567325176,59.1959635 0.665804263,58.4472656 C0.76428335,57.6985677 0.829936075,57.0963542 0.862762437,56.640625 C0.8955888,56.3802083 0.846349256,56.0302734 0.715043807,55.5908203 C0.583738357,55.1513672 0.534498813,54.8339844 0.567325176,54.6386719 C0.632977901,54.280599 0.76428335,53.9388021 0.961241524,53.6132812 C1.1581997,53.2877604 1.42901719,52.9052734 1.77369399,52.4658203 C2.1183708,52.0263672 2.38918829,51.6438802 2.58614646,51.3183594 C3.3411528,50.0813802 4.07974595,48.5921224 4.80192592,46.8505859 C5.52410589,45.1090495 6.01650133,43.6197917 6.27911223,42.3828125 C6.37759132,42.0572917 6.38579791,41.5690104 6.303732,40.9179688 C6.2216661,40.2669271 6.2134595,39.8111979 6.27911223,39.5507812 C6.37759132,39.1927083 6.6566154,38.7369792 7.11618447,38.1835938 C7.57575354,37.6302083 7.85477762,37.2558594 7.95325671,37.0605469 C8.64261032,35.8886719 9.33196393,34.391276 10.0213175,32.5683594 C10.7106712,30.7454427 11.1210007,29.280599 11.2523061,28.1738281 C11.2851325,27.8808594 11.2440995,27.360026 11.1292073,26.6113281 C11.014315,25.8626302 11.0225216,25.406901 11.153827,25.2441406 C11.2851325,24.8209635 11.6462225,24.3245443 12.237097,23.7548828 C12.8279715,23.1852214 13.1890615,22.8190104 13.320367,22.65625 C13.9440678,21.8098958 14.641628,20.4345703 15.4130476,18.5302734 C16.1844671,16.6259766 16.6358296,15.0553385 16.767135,13.8183594 C16.7999614,13.5579427 16.7507218,13.1429036 16.6194164,12.5732422 C16.4881109,12.0035807 16.4552846,11.5722656 16.5209373,11.2792969 C16.58659,11.0188802 16.7343086,10.7259115 16.9640932,10.4003906 C17.1938777,10.0748698 17.489315,9.70052083 17.850405,9.27734375 C18.211495,8.85416667 18.490519,8.51236979 18.6874772,8.25195312 C18.9500881,7.86132812 19.2209056,7.36490885 19.4999297,6.76269531 C19.7789538,6.16048177 20.0251515,5.59082031 20.2385228,5.05371094 C20.4518942,4.51660156 20.7145051,3.93066406 21.0263555,3.29589844 C21.338206,2.66113281 21.658263,2.14029948 21.9865266,1.73339844 C22.3147903,1.3264974 22.7497396,0.944010417 23.2913745,0.5859375 C23.8330095,0.227864583 24.423884,0.0406901042 25.0639981,0.0244140625 C25.7041122,0.00813802083 26.4837383,0.09765625 27.4028764,0.29296875 L27.3536369,0.439453125 C28.6010386,0.146484375 29.4381109,0 29.8648536,0 L67.3361463,0 C69.7652971,0 71.6363997,0.911458333 72.9494542,2.734375 C74.2625087,4.55729167 74.557946,6.67317708 73.835766,9.08203125 L60.3441311,53.3203125 C59.162382,57.1940104 57.9888396,59.6923828 56.8235037,60.8154297 C55.6581678,61.9384766 53.5490741,62.5 50.4962224,62.5 L7.70705899,62.5 C6.82074721,62.5 6.19704632,62.7441406 5.83595634,63.2324219 C5.47486635,63.7532552 5.45845317,64.453125 5.78671679,65.3320312 C6.57454949,67.6106771 8.93804758,68.75 12.8772111,68.75 L58.3253098,68.75 C59.2772743,68.75 60.1964124,68.4977214 61.0827242,67.9931641 C61.969036,67.4886068 62.5434973,66.813151 62.8061082,65.9667969 L77.5779713,17.7734375 C77.8077558,17.0572917 77.8898218,16.1295573 77.824169,14.9902344 C79.0715708,15.4785156 80.0399485,16.1783854 80.7293021,17.0898438 Z M28.3384277,17.1875 C28.2071223,17.6106771 28.2399487,17.976888 28.4369068,18.2861328 C28.633865,18.5953776 28.9621286,18.75 29.4216977,18.75 L59.3593402,18.75 C59.7860829,18.75 60.204619,18.5953776 60.6149486,18.2861328 C61.0252781,17.976888 61.2960956,17.6106771 61.427401,17.1875 L62.4614314,14.0625 C62.5927369,13.6393229 62.5599105,13.273112 62.3629524,12.9638672 C62.1659942,12.6546224 61.8377306,12.5 61.3781615,12.5 L31.440519,12.5 C31.0137763,12.5 30.5952402,12.6546224 30.1849106,12.9638672 C29.7745811,13.273112 29.5037636,13.6393229 29.3724582,14.0625 L28.3384277,17.1875 Z M24.2515456,29.6875 C24.1202402,30.1106771 24.1530665,30.476888 24.3500247,30.7861328 C24.5469829,31.0953776 24.8752465,31.25 25.3348156,31.25 L55.2724581,31.25 C55.6992008,31.25 56.1177369,31.0953776 56.5280664,30.7861328 C56.938396,30.476888 57.2092135,30.1106771 57.3405189,29.6875 L58.3745493,26.5625 C58.5058548,26.1393229 58.4730284,25.773112 58.2760702,25.4638672 C58.0791121,25.1546224 57.7508484,25 57.2912794,25 L27.3536369,25 C26.9268942,25 26.508358,25.1546224 26.0980285,25.4638672 C25.687699,25.773112 25.4168815,26.1393229 25.285576,26.5625 L24.2515456,29.6875 Z"/>
            </g>
        </g>
    </g>
</symbol><symbol id="cross" viewBox="0 0 20 20">
    <!-- Generator: sketchtool 48.1 (47250) - http://www.bohemiancoding.com/sketch -->
    <title>cross</title>
    <desc>Created with sketchtool.</desc>
    
    <g id="Page-1" stroke="none" stroke-width="1" fill-rule="evenodd">
        <g id="cross">
            <path d="M10.3786797,6.92559782 L6.92559782,3.47251598 C5.9720556,2.51897376 4.4260582,2.51897376 3.47251598,3.47251598 C2.51897376,4.4260582 2.51897376,5.9720556 3.47251598,6.92559782 L6.92559782,10.3786797 L3.47251598,13.8317615 C2.51897376,14.7853037 2.51897376,16.3313011 3.47251598,17.2848433 C4.4260582,18.2383856 5.9720556,18.2383856 6.92559782,17.2848433 L10.3786797,13.8317615 L13.8317615,17.2848433 C14.7853037,18.2383856 16.3313011,18.2383856 17.2848433,17.2848433 C18.2383856,16.3313011 18.2383856,14.7853037 17.2848433,13.8317615 L13.8317615,10.3786797 L17.2848433,6.92559782 C18.2383856,5.9720556 18.2383856,4.4260582 17.2848433,3.47251598 C16.3313011,2.51897376 14.7853037,2.51897376 13.8317615,3.47251598 L10.3786797,6.92559782 Z" id="Combined-Shape"/>
        </g>
    </g>
</symbol><symbol id="favico" viewBox="0 0 64 64">
    <!-- Generator: sketchtool 48.1 (47250) - http://www.bohemiancoding.com/sketch -->
    <title>favico</title>
    <desc>Created with sketchtool.</desc>
    
    <g id="Page-1" stroke="none" stroke-width="1" fill-rule="evenodd">
        <g id="favico">
            <g id="Group" transform="translate(9.000000, 4.000000)">
                <rect id="!backdrop" fill="#FFFFFF" x="7" y="18" width="34" height="28"/>
                <path d="M32.9991435,33 C36.3156317,33 39,30.3139186 39,27.0008565 C39,23.6860814 36.3156317,21 32.9991435,21 C29.6877944,21 27,23.6860814 27,27.0008565 C27,30.3139186 29.6860814,33 32.9991435,33 Z M13.10691,45 L31.8947663,45 C34.1611101,45 36,43.2090323 36,41 C36,38.7909677 34.1594338,37 31.8947663,37 L13.10691,37 C10.8388899,37 9,38.7909677 9,41 C9,43.2090323 10.8388899,45 13.10691,45 Z M14,33 C17.314302,33 20,30.3139186 20,27.0008565 C20,23.6860814 17.314302,21 14,21 C10.685698,21 8,23.6860814 8,27.0008565 C8,30.3139186 10.685698,33 14,33 Z M22.7562879,9.92422909 L22.7562879,9.7162996 C22.7562879,8.9621147 23.3373807,8.57973591 23.8751084,8.57973591 C24.4128361,8.57973591 24.9921943,8.9621147 24.9921943,9.7162996 L24.9921943,10 C26.7215958,9.55242298 28,7.95770958 28,6.06343675 C28,3.81850319 26.2098873,2.00000128 23.9982654,2.00000128 C21.7918474,1.99823917 20,3.81674108 20,6.06167464 C20,7.86431752 21.1569818,9.3938327 22.7562879,9.92422909 Z M14.689932,56 L14.689932,49.3158276 L8.2086318,49.3158276 C6.08372629,49.3158276 4.36147007,47.5935427 4.36147007,45.4706871 L4.36147007,38.950005 L2.07245959,38.950005 C0.928800259,38.950005 0,38.0221008 0,36.8795448 L0,28.5064346 C0,27.3638786 0.927108455,26.4359743 2.07245959,26.4359743 L4.35977827,26.4359743 L4.35977827,18.2251206 C4.35977827,16.102265 6.08372629,14.3816703 8.20693999,14.3816703 L22.3994817,14.3816703 L22.3994817,12.0306416 C19.6198481,11.4678145 17.5304705,9.0170656 17.5304705,6.07616698 C17.5304705,2.71948614 20.2525827,0 23.6125049,0 C26.9724272,0 29.6962312,2.71948614 29.6962312,6.07616698 C29.6962312,9.10326436 27.4799683,11.611479 24.5819085,12.0762762 L24.5819085,14.3816703 L38.8184371,14.3816703 C40.9433426,14.3816703 42.6672906,16.1039552 42.6672906,18.2251206 L42.6672906,26.4359743 L44.9241568,26.4359743 C46.0711997,26.4359743 47,27.3621884 47,28.5064346 L47,36.8795448 C47,38.0221008 46.0711997,38.950005 44.9241568,38.950005 L42.6672906,38.950005 L42.6672906,45.4706871 C42.6672906,47.5935427 40.9416508,49.3158276 38.8184371,49.3158276 L32.387891,49.3158276 L32.387891,56 L14.689932,56 Z" id="Shape" fill-rule="nonzero"/>
            </g>
        </g>
    </g>
</symbol><symbol id="forward" viewBox="0 0 100 100">
    <!-- Generator: sketchtool 48.1 (47250) - http://www.bohemiancoding.com/sketch -->
    <title>forward</title>
    <desc>Created with sketchtool.</desc>
    
    <g id="Page-1" stroke="none" stroke-width="1" fill-rule="evenodd">
        <g id="forward">
            <path d="M22.3559958,23.372435 L65.5077013,47.4662285 C66.9155597,48.2523075 67.4156776,50.0238429 66.6247459,51.4230636 C66.3619436,51.8879816 65.9754893,52.2720649 65.5077013,52.5332547 L22.3559958,76.6270482 C20.9481374,77.4131273 19.1656658,76.9160778 18.3747341,75.5168571 C18.1290472,75.0822176 18,74.592068 18,74.0935351 L18,25.9059481 C18,24.3010373 19.3090689,23 20.9238873,23 C21.4254978,23 21.9186732,23.1282555 22.3559958,23.372435 Z" id="Path-3"/>
            <rect id="Rectangle-3" x="66" y="23" width="16" height="54" rx="3"/>
        </g>
    </g>
</symbol><symbol id="goal" viewBox="0 0 100 100">
    <!-- Generator: sketchtool 48.1 (47250) - http://www.bohemiancoding.com/sketch -->
    <title>goal</title>
    <desc>Created with sketchtool.</desc>
    
    <g id="Page-1" stroke="none" stroke-width="1" fill-rule="evenodd">
        <g id="goal">
            <g id="!group" transform="translate(53.500000, 58.000000) rotate(-345.000000) translate(-53.500000, -58.000000) translate(18.000000, 8.000000)">
                <g id="Rectangle">
                    <use fill="#8A6730" xlink:href="#path-2"/>
                    <use fill-opacity="0.3" fill="url(#linearGradient-1)" xlink:href="#path-2"/>
                </g>
                <path d="M9.53731343,4.21052632 C36.6656716,4.21052632 43.8716418,24.4017229 71,24.4017229 C71,24.4017229 71,71.5145148 71,71.5145148 C43.8716418,72.8605946 36.6656716,52.669398 9.53731343,52.669398 C9.53731343,52.669398 9.53731343,4.21052632 9.53731343,4.21052632 Z" id="Path-2" fill="#2FBB44"/>
                <path d="M12.1415272,4.27415381 L10.6873186,13.4556656 L9.53731343,13.2735227 L9.53731343,4.21052632 C10.4263115,4.21052632 11.2939154,4.23220918 12.1415272,4.27415381 Z M9.53731343,23.3949727 L9.53731343,20.7165125 L10.6873186,13.4556656 L20.5610792,15.0195156 L18.9972291,24.8932762 L9.53731343,23.3949727 Z M9.53731343,33.5164228 L17.4333791,34.7670368 L15.869529,44.6407973 L9.53731343,43.6378729 L9.53731343,33.5164228 Z M31.5607201,9.47483643 L30.4348397,16.5833657 L20.5610792,15.0195156 L22.0196666,5.81035727 C25.4846522,6.74337539 28.6088906,8.02173829 31.5607201,9.47483643 Z M50.1659224,19.7084622 L40.3086003,18.1472157 L40.8617434,14.6548073 C43.8770848,16.4265716 46.9065721,18.1839991 50.1659224,19.7084622 Z M59.764087,23.1187484 L58.4922714,31.1486764 L48.6185108,29.5848263 L50.1816114,19.7157976 C53.1336258,21.0955237 56.2743986,22.2839478 59.764087,23.1187484 Z M24.3576824,54.953027 C21.376368,53.9884829 18.1510805,53.2652383 14.5596138,52.9112768 L15.869529,44.6407973 L25.7432896,46.2046474 L24.3576824,54.953027 Z M71,33.129706 L68.3660319,32.7125264 L69.6848717,24.3856997 C70.1180359,24.3963229 70.556354,24.4017229 71,24.4017229 L71,33.129706 Z M71,43.251156 L71,53.3726061 L65.2383318,52.4600475 L66.8021819,42.586287 L71,43.251156 Z M29.4759173,56.9172876 L34.0532001,57.642258 L33.8335604,59.0290084 C32.4188767,58.2897095 30.9730241,57.5787896 29.4759147,56.9172864 Z M52.545377,68.6958746 C49.20295,67.4356569 46.1354707,65.8672193 43.134624,64.2087246 L43.9269607,59.206108 L53.8007212,60.769958 L52.5453793,68.6958754 Z M71,63.4940562 L71,71.5145148 C67.8424363,71.6711897 64.95477,71.5360897 62.2741724,71.1750135 L63.6744818,62.3338081 L71,63.4940562 Z M30.4348397,16.5833657 L40.3086003,18.1472157 L38.7447502,28.0209763 L28.8709897,26.4571262 L30.4348397,16.5833657 Z M18.9972291,24.8932762 L28.8709897,26.4571262 L27.3071396,36.3308868 L17.4333791,34.7670368 L18.9972291,24.8932762 Z M27.3071396,36.3308868 L37.1809002,37.8947368 L35.6170502,47.7684974 L25.7432896,46.2046474 L27.3071396,36.3308868 Z M38.7447502,28.0209763 L48.6185108,29.5848263 L47.0546608,39.4585869 L37.1809002,37.8947368 L38.7447502,28.0209763 Z M47.0546608,39.4585869 L56.9284213,41.0224369 L55.3645713,50.8961975 L45.4908107,49.3323474 L47.0546608,39.4585869 Z M35.6170502,47.7684974 L45.4908107,49.3323474 L43.9269607,59.206108 L34.0532001,57.642258 L35.6170502,47.7684974 Z M58.4922714,31.1486764 L68.3660319,32.7125264 L66.8021819,42.586287 L56.9284213,41.0224369 L58.4922714,31.1486764 Z M55.3645713,50.8961975 L65.2383318,52.4600475 L63.6744818,62.3338081 L53.8007212,60.769958 L55.3645713,50.8961975 Z" id="Combined-Shape" fill="#2D7137"/>
            </g>
        </g>
    </g>
</symbol><symbol id="key" viewBox="0 0 100 100">
    <!-- Generator: sketchtool 48.1 (47250) - http://www.bohemiancoding.com/sketch -->
    <title>key</title>
    <desc>Created with sketchtool.</desc>
    
    <g id="Page-1" stroke="none" stroke-width="1" fill-rule="evenodd">
        <g id="key">
            <path d="M52.671397,55.2833025 L37.0452289,39.6571343 L29.0849138,47.6174494 L20.3285672,38.8611028 L28.2888823,30.9007877 L25.1047562,27.7166617 L14.7563466,38.0650713 L6,29.3087247 L24.3087247,11 L60.6317121,47.3229874 C69.2657485,42.2236715 80.5728709,43.3832009 87.9912455,50.8015755 C96.7839668,59.5942967 96.7839668,73.8501146 87.9912455,82.6428359 C79.1985242,91.4355571 64.9427064,91.4355571 56.1499851,82.6428359 C48.7316105,75.2244613 47.5720812,63.9173389 52.671397,55.2833025 Z M80.8269619,75.4785523 C85.6629586,70.6425556 85.6629586,62.8018558 80.8269619,57.9658591 C75.9909652,53.1298624 68.1502654,53.1298624 63.3142687,57.9658591 C58.478272,62.8018558 58.478272,70.6425556 63.3142687,75.4785523 C68.1502654,80.314549 75.9909652,80.314549 80.8269619,75.4785523 Z" id="Combined-Shape"/>
        </g>
    </g>
</symbol><symbol id="lock" viewBox="0 0 100 100">
    <!-- Generator: sketchtool 48.1 (47250) - http://www.bohemiancoding.com/sketch -->
    <title>lock</title>
    <desc>Created with sketchtool.</desc>
    
    <g id="Page-1" stroke="none" stroke-width="1" fill-rule="evenodd">
        <g id="lock">
            <g id="!block">
                <rect id="Rectangle-4" fill="#A0A0A0" x="0" y="0" width="100" height="100"/>
                <path d="M8,8 L8,92 L-5.32907052e-15,100 L7.94163478e-16,-2.84217094e-14 L100,0 L92,8 L8,8 Z" id="Combined-Shape" fill-opacity="0.2" fill="#FFFFFF"/>
                <path d="M8,8 L8,92 L-5.32907052e-15,100 L7.94163478e-16,-2.84217094e-14 L100,0 L92,8 L8,8 Z" id="Combined-Shape-Copy" fill-opacity="0.2" fill="#000000" transform="translate(50.000000, 50.000000) rotate(-180.000000) translate(-50.000000, -50.000000) "/>
            </g>
            <g id="group" transform="translate(26.000000, 18.000000)">
                <path d="M3,31 L3,21.5320911 C3,9.64024555 12.4020203,0 24,0 C35.5979797,0 45,9.64024555 45,21.5320911 L45,31 L48,31 L48,65 L0,65 L0,31 L3,31 Z M10,22 L10,30.952381 L38,30.952381 L38,22 C38,14.3074624 31.6629509,8 24,8 C16.3370491,8 10,14.3074624 10,22 Z" id="Combined-Shape"/>
                <rect id="!keyhole" fill="#FFFFFF" x="21.4468085" y="41.9354839" width="5.10638298" height="14.6774194"/>
            </g>
        </g>
    </g>
</symbol><symbol id="logo" viewBox="0 0 100 100">
    <!-- Generator: sketchtool 48.1 (47250) - http://www.bohemiancoding.com/sketch -->
    <title>logo</title>
    <desc>Created with sketchtool.</desc>
    
    <g id="Page-1" stroke="none" stroke-width="1" fill-rule="evenodd">
        <g id="logo">
            <rect id="!backdrop" fill="#FFFFFF" x="33" y="24" width="34" height="28"/>
            <path d="M59.9991435,37 C63.3156317,37 66,34.3139186 66,31.0008565 C66,27.6860814 63.3156317,25 59.9991435,25 C56.6877944,25 54,27.6860814 54,31.0008565 C54,34.3139186 56.6860814,37 59.9991435,37 Z M40.10691,49 L58.8947663,49 C61.1611101,49 63,47.2090323 63,45 C63,42.7909677 61.1594338,41 58.8947663,41 L40.10691,41 C37.8388899,41 36,42.7909677 36,45 C36,47.2090323 37.8388899,49 40.10691,49 Z M41,37 C44.314302,37 47,34.3139186 47,31.0008565 C47,27.6860814 44.314302,25 41,25 C37.685698,25 35,27.6860814 35,31.0008565 C35,34.3139186 37.685698,37 41,37 Z M49.7562879,13.9242291 L49.7562879,13.7162996 C49.7562879,12.9621147 50.3373807,12.5797359 50.8751084,12.5797359 C51.4128361,12.5797359 51.9921943,12.9621147 51.9921943,13.7162996 L51.9921943,14 C53.7215958,13.552423 55,11.9577096 55,10.0634368 C55,7.81850319 53.2098873,6.00000128 50.9982654,6.00000128 C48.7918474,5.99823917 47,7.81674108 47,10.0616746 C47,11.8643175 48.1569818,13.3938327 49.7562879,13.9242291 Z M41.689932,60 L41.689932,53.3158276 L35.2086318,53.3158276 C33.0837263,53.3158276 31.3614701,51.5935427 31.3614701,49.4706871 L31.3614701,42.950005 L29.0724596,42.950005 C27.9288003,42.950005 27,42.0221008 27,40.8795448 L27,32.5064346 C27,31.3638786 27.9271085,30.4359743 29.0724596,30.4359743 L31.3597783,30.4359743 L31.3597783,22.2251206 C31.3597783,20.102265 33.0837263,18.3816703 35.20694,18.3816703 L49.3994817,18.3816703 L49.3994817,16.0306416 C46.6198481,15.4678145 44.5304705,13.0170656 44.5304705,10.076167 C44.5304705,6.71948614 47.2525827,4 50.6125049,4 C53.9724272,4 56.6962312,6.71948614 56.6962312,10.076167 C56.6962312,13.1032644 54.4799683,15.611479 51.5819085,16.0762762 L51.5819085,18.3816703 L65.8184371,18.3816703 C67.9433426,18.3816703 69.6672906,20.1039552 69.6672906,22.2251206 L69.6672906,30.4359743 L71.9241568,30.4359743 C73.0711997,30.4359743 74,31.3621884 74,32.5064346 L74,40.8795448 C74,42.0221008 73.0711997,42.950005 71.9241568,42.950005 L69.6672906,42.950005 L69.6672906,49.4706871 C69.6672906,51.5935427 67.9416508,53.3158276 65.8184371,53.3158276 L59.387891,53.3158276 L59.387891,60 L41.689932,60 Z" id="Shape" fill-rule="nonzero"/>
            <path d="M19.0947266,72.4257812 L19.0947266,70 L21.5205078,70 L21.5205078,72.4257812 L19.0947266,72.4257812 Z M21.7973633,75.128418 L21.7973633,72.7026367 L24.2231445,72.7026367 L24.2231445,75.128418 L21.7973633,75.128418 Z M16.3920898,72.4257812 L16.3920898,70 L18.8310547,70 L18.8310547,72.4257812 L16.3920898,72.4257812 Z M21.7973633,77.8310547 L21.7973633,75.3920898 L24.2231445,75.3920898 L24.2231445,77.8310547 L21.7973633,77.8310547 Z M13.6894531,72.4257812 L13.6894531,70 L16.128418,70 L16.128418,72.4257812 L13.6894531,72.4257812 Z M11,72.4257812 L11,70 L13.4257812,70 L13.4257812,72.4257812 L11,72.4257812 Z M19.0947266,80.5336914 L19.0947266,78.0947266 L21.5205078,78.0947266 L21.5205078,80.5336914 L19.0947266,80.5336914 Z M11,75.128418 L11,72.7026367 L13.4257812,72.7026367 L13.4257812,75.128418 L11,75.128418 Z M16.3920898,80.5336914 L16.3920898,78.0947266 L18.8310547,78.0947266 L18.8310547,80.5336914 L16.3920898,80.5336914 Z M11,77.8310547 L11,75.3920898 L13.4257812,75.3920898 L13.4257812,77.8310547 L11,77.8310547 Z M13.6894531,80.5336914 L13.6894531,78.0947266 L16.128418,78.0947266 L16.128418,80.5336914 L13.6894531,80.5336914 Z M16.3920898,83.2231445 L16.3920898,80.7973633 L18.8310547,80.7973633 L18.8310547,83.2231445 L16.3920898,83.2231445 Z M19.0947266,85.9257812 L19.0947266,83.5 L21.5205078,83.5 L21.5205078,85.9257812 L19.0947266,85.9257812 Z M21.7973633,88.628418 L21.7973633,86.2026367 L24.2231445,86.2026367 L24.2231445,88.628418 L21.7973633,88.628418 Z M11,80.5336914 L11,78.0947266 L13.4257812,78.0947266 L13.4257812,80.5336914 L11,80.5336914 Z M11,83.2231445 L11,80.7973633 L13.4257812,80.7973633 L13.4257812,83.2231445 L11,83.2231445 Z M11,85.9257812 L11,83.5 L13.4257812,83.5 L13.4257812,85.9257812 L11,85.9257812 Z M11,88.628418 L11,86.2026367 L13.4257812,86.2026367 L13.4257812,88.628418 L11,88.628418 Z M35.2841797,72.4257812 L35.2841797,70 L37.7099609,70 L37.7099609,72.4257812 L35.2841797,72.4257812 Z M37.9868164,75.128418 L37.9868164,72.7026367 L40.4125977,72.7026367 L40.4125977,75.128418 L37.9868164,75.128418 Z M32.581543,72.4257812 L32.581543,70 L35.0205078,70 L35.0205078,72.4257812 L32.581543,72.4257812 Z M37.9868164,77.8310547 L37.9868164,75.3920898 L40.4125977,75.3920898 L40.4125977,77.8310547 L37.9868164,77.8310547 Z M29.8789062,72.4257812 L29.8789062,70 L32.3178711,70 L32.3178711,72.4257812 L29.8789062,72.4257812 Z M37.9868164,80.5336914 L37.9868164,78.0947266 L40.4125977,78.0947266 L40.4125977,80.5336914 L37.9868164,80.5336914 Z M37.9868164,83.2231445 L37.9868164,80.7973633 L40.4125977,80.7973633 L40.4125977,83.2231445 L37.9868164,83.2231445 Z M27.1894531,75.128418 L27.1894531,72.7026367 L29.6152344,72.7026367 L29.6152344,75.128418 L27.1894531,75.128418 Z M37.9868164,85.9257812 L37.9868164,83.5 L40.4125977,83.5 L40.4125977,85.9257812 L37.9868164,85.9257812 Z M27.1894531,77.8310547 L27.1894531,75.3920898 L29.6152344,75.3920898 L29.6152344,77.8310547 L27.1894531,77.8310547 Z M27.1894531,80.5336914 L27.1894531,78.0947266 L29.6152344,78.0947266 L29.6152344,80.5336914 L27.1894531,80.5336914 Z M35.2841797,88.628418 L35.2841797,86.2026367 L37.7099609,86.2026367 L37.7099609,88.628418 L35.2841797,88.628418 Z M27.1894531,83.2231445 L27.1894531,80.7973633 L29.6152344,80.7973633 L29.6152344,83.2231445 L27.1894531,83.2231445 Z M32.581543,88.628418 L32.581543,86.2026367 L35.0205078,86.2026367 L35.0205078,88.628418 L32.581543,88.628418 Z M27.1894531,85.9257812 L27.1894531,83.5 L29.6152344,83.5 L29.6152344,85.9257812 L27.1894531,85.9257812 Z M29.8789062,88.628418 L29.8789062,86.2026367 L32.3178711,86.2026367 L32.3178711,88.628418 L29.8789062,88.628418 Z M54.1762695,72.4257812 L54.1762695,70 L56.6020508,70 L56.6020508,72.4257812 L54.1762695,72.4257812 Z M54.1762695,75.128418 L54.1762695,72.7026367 L56.6020508,72.7026367 L56.6020508,75.128418 L54.1762695,75.128418 Z M54.1762695,77.8310547 L54.1762695,75.3920898 L56.6020508,75.3920898 L56.6020508,77.8310547 L54.1762695,77.8310547 Z M54.1762695,80.5336914 L54.1762695,78.0947266 L56.6020508,78.0947266 L56.6020508,80.5336914 L54.1762695,80.5336914 Z M43.3789062,72.4257812 L43.3789062,70 L45.8046875,70 L45.8046875,72.4257812 L43.3789062,72.4257812 Z M54.1762695,83.2231445 L54.1762695,80.7973633 L56.6020508,80.7973633 L56.6020508,83.2231445 L54.1762695,83.2231445 Z M43.3789062,75.128418 L43.3789062,72.7026367 L45.8046875,72.7026367 L45.8046875,75.128418 L43.3789062,75.128418 Z M43.3789062,77.8310547 L43.3789062,75.3920898 L45.8046875,75.3920898 L45.8046875,77.8310547 L43.3789062,77.8310547 Z M51.4736328,85.9257812 L51.4736328,83.5 L53.8994141,83.5 L53.8994141,85.9257812 L51.4736328,85.9257812 Z M43.3789062,80.5336914 L43.3789062,78.0947266 L45.8046875,78.0947266 L45.8046875,80.5336914 L43.3789062,80.5336914 Z M43.3789062,83.2231445 L43.3789062,80.7973633 L45.8046875,80.7973633 L45.8046875,83.2231445 L43.3789062,83.2231445 Z M46.0683594,85.9257812 L46.0683594,83.5 L48.5073242,83.5 L48.5073242,85.9257812 L46.0683594,85.9257812 Z M48.7709961,88.628418 L48.7709961,86.2026367 L51.2099609,86.2026367 L51.2099609,88.628418 L48.7709961,88.628418 Z M70.3657227,72.4257812 L70.3657227,70 L72.7915039,70 L72.7915039,72.4257812 L70.3657227,72.4257812 Z M67.6630859,72.4257812 L67.6630859,70 L70.0888672,70 L70.0888672,72.4257812 L67.6630859,72.4257812 Z M64.9604492,72.4257812 L64.9604492,70 L67.3994141,70 L67.3994141,72.4257812 L64.9604492,72.4257812 Z M62.2578125,72.4257812 L62.2578125,70 L64.6967773,70 L64.6967773,72.4257812 L62.2578125,72.4257812 Z M59.5683594,72.4257812 L59.5683594,70 L61.9941406,70 L61.9941406,72.4257812 L59.5683594,72.4257812 Z M67.6630859,80.5336914 L67.6630859,78.0947266 L70.0888672,78.0947266 L70.0888672,80.5336914 L67.6630859,80.5336914 Z M59.5683594,75.128418 L59.5683594,72.7026367 L61.9941406,72.7026367 L61.9941406,75.128418 L59.5683594,75.128418 Z M64.9604492,80.5336914 L64.9604492,78.0947266 L67.3994141,78.0947266 L67.3994141,80.5336914 L64.9604492,80.5336914 Z M59.5683594,77.8310547 L59.5683594,75.3920898 L61.9941406,75.3920898 L61.9941406,77.8310547 L59.5683594,77.8310547 Z M62.2578125,80.5336914 L62.2578125,78.0947266 L64.6967773,78.0947266 L64.6967773,80.5336914 L62.2578125,80.5336914 Z M70.3657227,88.628418 L70.3657227,86.2026367 L72.7915039,86.2026367 L72.7915039,88.628418 L70.3657227,88.628418 Z M59.5683594,80.5336914 L59.5683594,78.0947266 L61.9941406,78.0947266 L61.9941406,80.5336914 L59.5683594,80.5336914 Z M67.6630859,88.628418 L67.6630859,86.2026367 L70.0888672,86.2026367 L70.0888672,88.628418 L67.6630859,88.628418 Z M59.5683594,83.2231445 L59.5683594,80.7973633 L61.9941406,80.7973633 L61.9941406,83.2231445 L59.5683594,83.2231445 Z M64.9604492,88.628418 L64.9604492,86.2026367 L67.3994141,86.2026367 L67.3994141,88.628418 L64.9604492,88.628418 Z M59.5683594,85.9257812 L59.5683594,83.5 L61.9941406,83.5 L61.9941406,85.9257812 L59.5683594,85.9257812 Z M62.2578125,88.628418 L62.2578125,86.2026367 L64.6967773,86.2026367 L64.6967773,88.628418 L62.2578125,88.628418 Z M59.5683594,88.628418 L59.5683594,86.2026367 L61.9941406,86.2026367 L61.9941406,88.628418 L59.5683594,88.628418 Z M83.8525391,72.4257812 L83.8525391,70 L86.2783203,70 L86.2783203,72.4257812 L83.8525391,72.4257812 Z M86.5551758,75.128418 L86.5551758,72.7026367 L88.980957,72.7026367 L88.980957,75.128418 L86.5551758,75.128418 Z M81.1499023,72.4257812 L81.1499023,70 L83.5888672,70 L83.5888672,72.4257812 L81.1499023,72.4257812 Z M86.5551758,77.8310547 L86.5551758,75.3920898 L88.980957,75.3920898 L88.980957,77.8310547 L86.5551758,77.8310547 Z M78.4472656,72.4257812 L78.4472656,70 L80.8862305,70 L80.8862305,72.4257812 L78.4472656,72.4257812 Z M75.7578125,72.4257812 L75.7578125,70 L78.1835938,70 L78.1835938,72.4257812 L75.7578125,72.4257812 Z M83.8525391,80.5336914 L83.8525391,78.0947266 L86.2783203,78.0947266 L86.2783203,80.5336914 L83.8525391,80.5336914 Z M75.7578125,75.128418 L75.7578125,72.7026367 L78.1835938,72.7026367 L78.1835938,75.128418 L75.7578125,75.128418 Z M81.1499023,80.5336914 L81.1499023,78.0947266 L83.5888672,78.0947266 L83.5888672,80.5336914 L81.1499023,80.5336914 Z M75.7578125,77.8310547 L75.7578125,75.3920898 L78.1835938,75.3920898 L78.1835938,77.8310547 L75.7578125,77.8310547 Z M78.4472656,80.5336914 L78.4472656,78.0947266 L80.8862305,78.0947266 L80.8862305,80.5336914 L78.4472656,80.5336914 Z M81.1499023,83.2231445 L81.1499023,80.7973633 L83.5888672,80.7973633 L83.5888672,83.2231445 L81.1499023,83.2231445 Z M83.8525391,85.9257812 L83.8525391,83.5 L86.2783203,83.5 L86.2783203,85.9257812 L83.8525391,85.9257812 Z M86.5551758,88.628418 L86.5551758,86.2026367 L88.980957,86.2026367 L88.980957,88.628418 L86.5551758,88.628418 Z M75.7578125,80.5336914 L75.7578125,78.0947266 L78.1835938,78.0947266 L78.1835938,80.5336914 L75.7578125,80.5336914 Z M75.7578125,83.2231445 L75.7578125,80.7973633 L78.1835938,80.7973633 L78.1835938,83.2231445 L75.7578125,83.2231445 Z M75.7578125,85.9257812 L75.7578125,83.5 L78.1835938,83.5 L78.1835938,85.9257812 L75.7578125,85.9257812 Z M75.7578125,88.628418 L75.7578125,86.2026367 L78.1835938,86.2026367 L78.1835938,88.628418 L75.7578125,88.628418 Z" id="ROVER"/>
        </g>
    </g>
</symbol><symbol id="pause" viewBox="0 0 100 100">
    <!-- Generator: sketchtool 48.1 (47250) - http://www.bohemiancoding.com/sketch -->
    <title>pause</title>
    <desc>Created with sketchtool.</desc>
    
    <g id="Page-1" stroke="none" stroke-width="1" fill-rule="evenodd">
        <g id="pause">
            <g id="Group" transform="translate(19.000000, 11.000000)">
                <rect id="Rectangle-2" x="0" y="0" width="24" height="79" rx="4"/>
                <rect id="Rectangle-2-Copy" x="38" y="0" width="24" height="79" rx="4"/>
            </g>
        </g>
    </g>
</symbol><symbol id="play" viewBox="0 0 100 100">
    <!-- Generator: sketchtool 48.1 (47250) - http://www.bohemiancoding.com/sketch -->
    <title>play</title>
    <desc>Created with sketchtool.</desc>
    
    <g id="Page-1" stroke="none" stroke-width="1" fill-rule="evenodd">
        <g id="play">
            <path d="M20.3117491,11.5448585 L82.8376896,46.7931861 C84.8776477,47.9431906 85.6023084,50.5348813 84.4562645,52.5818893 C84.0754694,53.2620471 83.5155049,53.8239467 82.8376896,54.2060579 L20.3117491,89.4543854 C18.2717909,90.6043899 15.689026,89.8772249 14.5429821,87.8302169 C14.1869868,87.1943554 14,86.4772847 14,85.7479495 L14,15.2512944 C14,12.9033693 15.8968142,11 18.236653,11 C18.9634764,11 19.6780775,11.187633 20.3117491,11.5448585 Z" id="Path-3"/>
        </g>
    </g>
</symbol><symbol id="reset" viewBox="0 0 100 100">
    <!-- Generator: sketchtool 48.1 (47250) - http://www.bohemiancoding.com/sketch -->
    <title>reset</title>
    <desc>Created with sketchtool.</desc>
    
    <g id="Page-1" stroke="none" stroke-width="1" fill-rule="evenodd">
        <g id="reset" fill-rule="nonzero">
            <g id="file-o" transform="translate(16.000000, 11.000000)">
                <path d="M64.9895833,16.7522321 C65.8159722,17.5751488 66.5243056,18.6919643 67.1145833,20.1026786 C67.7048611,21.5133929 68,22.8065476 68,23.9821429 L68,74.7678571 C68,75.9434524 67.5868056,76.9427083 66.7604167,77.765625 C65.9340278,78.5885417 64.9305556,79 63.75,79 L4.25,79 C3.06944444,79 2.06597222,78.5885417 1.23958333,77.765625 C0.413194444,76.9427083 0,75.9434524 0,74.7678571 L0,4.23214286 C0,3.05654762 0.413194444,2.05729167 1.23958333,1.234375 C2.06597222,0.411458333 3.06944444,0 4.25,0 L43.9166667,0 C45.0972222,0 46.3958333,0.29389881 47.8125,0.881696429 C49.2291667,1.46949405 50.3506944,2.17485119 51.1770833,2.99776786 L64.9895833,16.7522321 Z M45.3333333,5.99553571 L45.3333333,22.5714286 L61.9791667,22.5714286 C61.6840278,21.719122 61.359375,21.1166295 61.0052083,20.7639509 L47.1484375,6.96540179 C46.7942708,6.61272321 46.1892361,6.28943452 45.3333333,5.99553571 Z M62.3333333,73.3571429 L62.3333333,28.2142857 L43.9166667,28.2142857 C42.7361111,28.2142857 41.7326389,27.8028274 40.90625,26.9799107 C40.0798611,26.156994 39.6666667,25.1577381 39.6666667,23.9821429 L39.6666667,5.64285714 L5.66666667,5.64285714 L5.66666667,73.3571429 L62.3333333,73.3571429 Z" id="Shape"/>
            </g>
            <g id="recycle" transform="translate(30.000000, 41.000000)">
                <path d="M19.1045823,27.4083241 L18.7551082,36.0372566 L18.7085117,36.5531167 L8.92323782,35.8731193 C8.36407931,35.8262229 7.84375126,35.5800169 7.36225366,35.1345014 C6.88075606,34.6889859 6.51574981,34.1770338 6.26723492,33.5986452 C6.09638093,33.1765779 5.98377262,32.7466945 5.92940999,32.308995 C5.87504735,31.8712955 5.90611172,31.3632515 6.02260307,30.7848629 C6.13909443,30.2064743 6.23228751,29.7765909 6.30218232,29.4952127 C6.37207714,29.2138344 6.53904808,28.7136065 6.80309515,27.9945288 C7.06714222,27.2754511 7.21469794,26.8611998 7.2457623,26.7517749 C8.4572724,26.9393604 12.4102124,27.1582101 19.1045823,27.4083241 Z M10.0881514,13.6676871 L14.2818402,22.5545496 L10.8569943,20.3973165 C9.87846693,21.5228294 9.01254786,22.6522504 8.25923709,23.7855794 C7.50592633,24.9189084 6.94288478,25.8959161 6.57011244,26.7166026 C6.1973401,27.5372891 5.89057953,28.275907 5.64983073,28.9324562 C5.40908193,29.5890054 5.26540926,30.0814173 5.21881272,30.4096919 L5.12561963,30.9021038 L0.698948132,22.5311014 C0.43490106,22.1246662 0.295111434,21.6869667 0.279579253,21.218003 C0.264047072,20.7490393 0.310643614,20.3816844 0.419368879,20.1159383 L0.605755048,19.6938709 C1.14938137,18.7090471 2.03471567,17.2396274 3.26175795,15.2856119 L0,13.2690679 L10.0881514,13.6676871 Z M38.7683231,25.7903993 L34.3882481,34.2082981 C34.2018619,34.6616296 33.9183996,35.0250765 33.5378612,35.2986387 C33.1573228,35.5722009 32.8194978,35.7324301 32.5243864,35.7793265 L32.1050175,35.8731193 C31.0022327,35.9825441 29.3014589,36.0763369 27.0026962,36.1544975 L27.1890823,40 L21.83048,31.3945157 L26.7464152,22.9062724 L26.9095031,26.9628086 C29.5499738,27.2129226 31.7477774,27.2520029 33.5029138,27.0800495 C35.2580502,26.9080961 36.5782856,26.6501661 37.4636199,26.3062594 L38.7683231,25.7903993 Z M20.4791803,4.12427539 C19.7491678,5.1090992 17.6911538,8.50908617 14.3051384,14.3242363 L6.91958651,9.93942552 L6.47691936,9.65804729 L11.7190303,1.31049306 C12.029674,0.825897219 12.4956394,0.474174428 13.1169266,0.255324692 C13.7382138,0.036474956 14.3595011,-0.041685664 14.9807883,0.020842832 C15.3535606,0.05210708 15.730216,0.145899824 16.1107544,0.302221064 C16.4912929,0.458542304 16.8174687,0.622679607 17.0892818,0.794632971 C17.361095,0.966586335 17.6833877,1.22451638 18.0561601,1.56842311 C18.4289324,1.91232984 18.7085117,2.18198398 18.8948978,2.37738553 C19.081284,2.57278708 19.3608633,2.88152153 19.7336356,3.30358888 C20.1064079,3.72565622 20.3549228,3.99921839 20.4791803,4.12427539 Z M35.7395478,11.3228685 L40.6787813,19.83456 C40.9583605,20.4129486 41.0554367,21.0069693 40.9700097,21.6166222 C40.8845827,22.226275 40.6710152,22.8046636 40.3293072,23.3517879 C40.1273889,23.6644304 39.8711079,23.9536247 39.5604643,24.2193708 C39.2498207,24.4851169 38.9547092,24.7039667 38.67513,24.87592 C38.3955507,25.0478734 38.0188953,25.2198267 37.5451638,25.3917801 C37.0714323,25.5637335 36.7064261,25.6887905 36.4501451,25.7669511 C36.1938641,25.8451117 35.7939105,25.9545366 35.2502841,26.0952257 C34.7066578,26.2359148 34.3494176,26.3297075 34.1785637,26.3766039 C33.6504695,25.251091 31.5924556,21.843288 28.0045218,16.1531948 L35.2968807,11.5807985 L35.7395478,11.3228685 Z M32.4078951,6.02357845 L35.7162495,4.07737901 L30.5906299,12.8235524 L20.8286543,12.3545887 L24.3466933,10.3380447 C23.8185991,8.94678564 23.2361423,7.64931935 22.5993229,6.4456458 C21.9625035,5.24197225 21.3761637,4.2766886 20.8403035,3.54979483 C20.3044432,2.82290106 19.8035304,2.1976161 19.337565,1.67393995 C18.8715996,1.15026379 18.5065933,0.786816909 18.2425462,0.583599297 L17.8464756,0.278772878 L27.2822754,0.302221064 C27.763773,0.255324692 28.2142063,0.337393343 28.6335751,0.548427018 C29.052944,0.759460692 29.3558215,0.982218459 29.5422077,1.21670032 L29.7984887,1.56842311 C30.4042437,2.52198267 31.2740459,4.00703446 32.4078951,6.02357845 Z" id="Shape"/>
            </g>
        </g>
    </g>
</symbol><symbol id="restart" viewBox="0 0 100 100">
    <!-- Generator: sketchtool 48.1 (47250) - http://www.bohemiancoding.com/sketch -->
    <title>restart</title>
    <desc>Created with sketchtool.</desc>
    
    <g id="Page-1" stroke="none" stroke-width="1" fill-rule="evenodd">
        <g id="restart" fill-rule="nonzero">
            <g id="reload" transform="translate(47.500000, 48.500000) scale(-1, 1) translate(-47.500000, -48.500000) translate(2.000000, 11.000000)">
                <path d="M75.3582756,37.5299182 L91,37.5299182 L67.6787543,60.7442832 L44.3575087,37.5299182 L65.7942092,37.5299182 C65.9355501,30.3076713 63.2029597,23.1323221 57.6435517,17.5983927 C46.6189628,6.62432922 28.7157843,6.62432922 17.6911955,17.5983927 C6.66660662,28.5724561 6.66660662,46.4404825 17.6911955,57.414546 C26.3601029,66.0437241 39.3634642,67.8727347 49.8226895,62.9015777 L56.7483927,69.7955407 C42.3787363,78.2840257 23.5332853,76.4081174 11.0010604,64.0271227 C-3.69839145,49.3950381 -3.65127782,25.6647983 11.048174,11.0327137 C25.8889667,-3.64626863 49.5871213,-3.69316634 64.3336868,10.985816 C71.6834127,18.3018583 75.3582756,27.9158882 75.3582756,37.5299182 Z" id="Shape"/>
            </g>
        </g>
    </g>
</symbol><symbol id="robot-lame" viewBox="0 0 100 100">
    <!-- Generator: sketchtool 48.1 (47250) - http://www.bohemiancoding.com/sketch -->
    <title>robot-lame</title>
    <desc>Created with sketchtool.</desc>
    
    <g id="Page-1" stroke="none" stroke-width="1" fill-rule="evenodd">
        <g id="robot-lame">
            <rect id="!backdrop" fill="#FFFFFF" x="20" y="33" width="61" height="50"/>
            <path d="M48.8235039,16.8674009 L48.8235039,16.5035243 C48.8235039,15.1837007 49.8404163,14.5145378 50.7814397,14.5145378 C51.7224631,14.5145378 52.73634,15.1837007 52.73634,16.5035243 L52.73634,17 C55.7627927,16.2167402 58,13.4259918 58,10.1110143 C58,6.18238058 54.8673027,3.00000224 50.9969644,3.00000224 C47.1357329,2.99691854 44,6.17929688 44,10.1079306 C44,13.2625557 46.0247181,15.9392072 48.8235039,16.8674009 Z M34.9417948,100 L34.9417948,88.0639778 L23.4960945,88.0639778 C19.7436017,88.0639778 16.7021705,84.9884691 16.7021705,81.1976556 L16.7021705,69.5535804 L12.6598755,69.5535804 C10.6402217,69.5535804 9,67.8966086 9,65.85633 L9,50.9043475 C9,48.8640689 10.6372341,47.207097 12.6598755,47.207097 L16.6991829,47.207097 L16.6991829,32.5448582 C16.6991829,28.7540447 19.7436017,25.6815542 23.4931068,25.6815542 L48.5565314,25.6815542 L48.5565314,21.4832886 C43.6478169,20.4782401 39.9580649,16.1019029 39.9580649,10.8502982 C39.9580649,4.85622525 44.7651992,0 50.698679,0 C56.6321587,0 61.4422807,4.85622525 61.4422807,10.8502982 C61.4422807,16.2558292 57.5284547,20.734784 52.4106044,21.564779 L52.4106044,25.6815542 L77.551708,25.6815542 C81.3042007,25.6815542 84.3486196,28.7570629 84.3486196,32.5448582 L84.3486196,47.207097 L88.3341492,47.207097 C90.3597783,47.207097 92,48.8610507 92,50.9043475 L92,65.85633 C92,67.8966086 90.3597783,69.5535804 88.3341492,69.5535804 L84.3486196,69.5535804 L84.3486196,81.1976556 C84.3486196,84.9884691 81.3012131,88.0639778 77.551708,88.0639778 L66.1956373,88.0639778 L66.1956373,100 L34.9417948,100 Z M59,46 C57.8954305,46 57,46.8954305 57,48 L57,49 C57,50.1045695 57.8954305,51 59,51 L76,51 C77.1045695,51 78,50.1045695 78,49 L78,48 C78,46.8954305 77.1045695,46 76,46 L59,46 Z M25,46 C23.8954305,46 23,46.8954305 23,48 L23,49 C23,50.1045695 23.8954305,51 25,51 L42,51 C43.1045695,51 44,50.1045695 44,49 L44,48 C44,46.8954305 43.1045695,46 42,46 L25,46 Z M28,70 C26.8954305,70 26,70.8954305 26,72 L26,74 C26,75.1045695 26.8954305,76 28,76 L72,76 C73.1045695,76 74,75.1045695 74,74 L74,72 C74,70.8954305 73.1045695,70 72,70 L28,70 Z" id="Shape" fill-rule="nonzero"/>
        </g>
    </g>
</symbol><symbol id="robot" viewBox="0 0 100 100">
    <!-- Generator: sketchtool 48.1 (47250) - http://www.bohemiancoding.com/sketch -->
    <title>robot</title>
    <desc>Created with sketchtool.</desc>
    
    <g id="Page-1" stroke="none" stroke-width="1" fill-rule="evenodd">
        <g id="robot">
            <rect id="!backdrop" fill="#FFFFFF" x="20" y="33" width="61" height="50"/>
            <path d="M67.4985011,59 C73.3023555,59 78,54.2993576 78,48.5014989 C78,42.7006424 73.3023555,38 67.4985011,38 C61.7036403,38 57,42.7006424 57,48.5014989 C57,54.2993576 61.7006424,59 67.4985011,59 Z M33.3011734,80 L66.7018067,80 C70.7308624,80 74,76.8658065 74,73 C74,69.1341935 70.7278823,66 66.7018067,66 L33.3011734,66 C29.2691376,66 26,69.1341935 26,73 C26,76.8658065 29.2691376,80 33.3011734,80 Z M33.5,59 C39.3000285,59 44,54.2993576 44,48.5014989 C44,42.7006424 39.3000285,38 33.5,38 C27.6999715,38 23,42.7006424 23,48.5014989 C23,54.2993576 27.6999715,59 33.5,59 Z M48.8235039,16.8674009 L48.8235039,16.5035243 C48.8235039,15.1837007 49.8404163,14.5145378 50.7814397,14.5145378 C51.7224631,14.5145378 52.73634,15.1837007 52.73634,16.5035243 L52.73634,17 C55.7627927,16.2167402 58,13.4259918 58,10.1110143 C58,6.18238058 54.8673027,3.00000224 50.9969644,3.00000224 C47.1357329,2.99691854 44,6.17929688 44,10.1079306 C44,13.2625557 46.0247181,15.9392072 48.8235039,16.8674009 Z M34.9417948,100 L34.9417948,88.0639778 L23.4960945,88.0639778 C19.7436017,88.0639778 16.7021705,84.9884691 16.7021705,81.1976556 L16.7021705,69.5535804 L12.6598755,69.5535804 C10.6402217,69.5535804 9,67.8966086 9,65.85633 L9,50.9043475 C9,48.8640689 10.6372341,47.207097 12.6598755,47.207097 L16.6991829,47.207097 L16.6991829,32.5448582 C16.6991829,28.7540447 19.7436017,25.6815542 23.4931068,25.6815542 L48.5565314,25.6815542 L48.5565314,21.4832886 C43.6478169,20.4782401 39.9580649,16.1019029 39.9580649,10.8502982 C39.9580649,4.85622525 44.7651992,0 50.698679,0 C56.6321587,0 61.4422807,4.85622525 61.4422807,10.8502982 C61.4422807,16.2558292 57.5284547,20.734784 52.4106044,21.564779 L52.4106044,25.6815542 L77.551708,25.6815542 C81.3042007,25.6815542 84.3486196,28.7570629 84.3486196,32.5448582 L84.3486196,47.207097 L88.3341492,47.207097 C90.3597783,47.207097 92,48.8610507 92,50.9043475 L92,65.85633 C92,67.8966086 90.3597783,69.5535804 88.3341492,69.5535804 L84.3486196,69.5535804 L84.3486196,81.1976556 C84.3486196,84.9884691 81.3012131,88.0639778 77.551708,88.0639778 L66.1956373,88.0639778 L66.1956373,100 L34.9417948,100 Z" id="Shape" fill-rule="nonzero"/>
        </g>
    </g>
</symbol><symbol id="rover-instructions" viewBox="0 0 60 42">
    <!-- Generator: sketchtool 48.1 (47250) - http://www.bohemiancoding.com/sketch -->
    <title>rover-instructions</title>
    <desc>Created with sketchtool.</desc>
    
    <g id="Page-1" stroke="none" stroke-width="1" fill-rule="evenodd">
        <g id="rover-instructions">
            <g id="!group" transform="translate(5.934066, 2.637363)">
                <rect id="!backdrop" fill="#FFFFFF" x="4.61538462" y="11.8681319" width="22.4175824" height="18.4615385"/>
                <path d="M21.757677,21.7582418 C23.9443725,21.7582418 25.7142857,19.9871991 25.7142857,17.8027625 C25.7142857,15.6171965 23.9443725,13.8461538 21.757677,13.8461538 C19.57437,13.8461538 17.8021978,15.6171965 17.8021978,17.8027625 C17.8021978,19.9871991 19.5732405,21.7582418 21.757677,21.7582418 Z M8.64191871,29.6703297 L21.0295162,29.6703297 C22.5238088,29.6703297 23.7362637,28.4894718 23.7362637,27.032967 C23.7362637,25.5764622 22.5227036,24.3956044 21.0295162,24.3956044 L8.64191871,24.3956044 C7.14652083,24.3956044 5.93406593,25.5764622 5.93406593,27.032967 C5.93406593,28.4894718 7.14652083,29.6703297 8.64191871,29.6703297 Z M9.23076923,21.7582418 C11.4160233,21.7582418 13.1868132,19.9871991 13.1868132,17.8027625 C13.1868132,15.6171965 11.4160233,13.8461538 9.23076923,13.8461538 C7.04551515,13.8461538 5.27472527,15.6171965 5.27472527,17.8027625 C5.27472527,19.9871991 7.04551515,21.7582418 9.23076923,21.7582418 Z M15.0041459,6.54344775 L15.0041459,6.40635139 C15.0041459,5.90908662 15.387284,5.65696873 15.7418297,5.65696873 C16.0963754,5.65696873 16.4783699,5.90908662 16.4783699,6.40635139 L16.4783699,6.59340659 C17.6186346,6.29830087 18.4615385,5.24684148 18.4615385,3.99787039 C18.4615385,2.51769441 17.2812443,1.31868216 15.8230321,1.31868216 C14.368251,1.31752033 13.1868132,2.51653258 13.1868132,3.99670855 C13.1868132,5.1852643 13.9496583,6.19373584 15.0041459,6.54344775 Z M9.68566943,36.9230769 L9.68566943,32.5159303 L5.4122847,32.5159303 C4.0112481,32.5159303 2.87569455,31.3803578 2.87569455,29.9806728 L2.87569455,25.681322 L1.36645688,25.681322 C0.612395775,25.681322 0,25.069517 0,24.3161834 L0,18.7954514 C0,18.0421177 0.6112803,17.4303127 1.36645688,17.4303127 L2.87457908,17.4303127 L2.87457908,12.016563 C2.87457908,10.616878 4.0112481,9.48242 5.41116923,9.48242 L14.768889,9.48242 L14.768889,7.93229117 C12.9361636,7.56119634 11.558552,5.94531798 11.558552,4.00626394 C11.558552,1.79306778 13.3533512,0 15.5686846,0 C17.7840179,0 19.5799327,1.79306778 19.5799327,4.00626394 C19.5799327,6.00215232 18.1186604,7.65592025 16.2078518,7.96237994 L16.2078518,9.48242 L25.5945739,9.48242 C26.9956105,9.48242 28.1322795,10.6179924 28.1322795,12.016563 L28.1322795,17.4303127 L29.6203232,17.4303127 C30.3766152,17.4303127 30.989011,18.0410033 30.989011,18.7954514 L30.989011,24.3161834 C30.989011,25.069517 30.3766152,25.681322 29.6203232,25.681322 L28.1322795,25.681322 L28.1322795,29.9806728 C28.1322795,31.3803578 26.994495,32.5159303 25.5945739,32.5159303 L21.3546534,32.5159303 L21.3546534,36.9230769 L9.68566943,36.9230769 Z" id="Shape" fill="#8ABB55" fill-rule="nonzero"/>
            </g>
            <polygon id="!balloon" fill="#FFFFFF" points="60 0 42 12 60 12"/>
        </g>
    </g>
</symbol><symbol id="star-gray" viewBox="0 0 100 100">
    <!-- Generator: sketchtool 48.1 (47250) - http://www.bohemiancoding.com/sketch -->
    <title>star-gray</title>
    <desc>Created with sketchtool.</desc>
    
    <g id="Page-1" stroke="none" stroke-width="1" fill-rule="evenodd">
        <g id="star-gray">
            <polygon id="Star" points="50.2730715 77 23.5288425 91.2147817 28.6365357 61.1073909 7 39.7852183 36.900957 35.3926091 50.2730715 8 63.645186 35.3926091 93.546143 39.7852183 71.9096072 61.1073909 77.0173005 91.2147817"/>
        </g>
    </g>
</symbol><symbol id="star" viewBox="0 0 100 100">
    <!-- Generator: sketchtool 48.1 (47250) - http://www.bohemiancoding.com/sketch -->
    <title>star</title>
    <desc>Created with sketchtool.</desc>
    
    <g id="Page-1" stroke="none" stroke-width="1" fill-rule="evenodd">
        <g id="star">
            <g id="!group" transform="translate(7.000000, 8.000000)">
                <rect id="Rectangle" fill="#FFFFFF" x="32" y="36" width="19" height="15"/>
                <polygon id="Star" fill="#FFDB40" points="43.2730715 69 16.5288425 83.2147817 21.6365357 53.1073909 4.4408921e-16 31.7852183 29.900957 27.3926091 43.2730715 0 56.645186 27.3926091 86.546143 31.7852183 64.9096072 53.1073909 70.0173005 83.2147817"/>
                <path d="M43.2730715,65.602573 L66.0393756,77.7030543 L61.6903934,52.0678996 L80.1488589,33.8776223 L54.6434739,30.130746 L43.2730715,6.83861891 L31.902669,30.130746 L6.3972841,33.8776223 L24.8557496,52.0678996 L20.5067674,77.7030543 L43.2730715,65.602573 Z M43.2730715,69 L16.5288425,83.2147817 L21.6365357,53.1073909 L0,31.7852183 L29.900957,27.3926091 L43.2730715,0 L56.645186,27.3926091 L86.546143,31.7852183 L64.9096072,53.1073909 L70.0173005,83.2147817 L43.2730715,69 Z" id="Star-Copy" fill="#FF5353" fill-rule="nonzero"/>
            </g>
        </g>
    </g>
</symbol><symbol id="tree" viewBox="0 0 100 100">
    <!-- Generator: sketchtool 48.1 (47250) - http://www.bohemiancoding.com/sketch -->
    <title>tree</title>
    <desc>Created with sketchtool.</desc>
    
    <g id="Page-1" stroke="none" stroke-width="1" fill-rule="evenodd">
        <g id="tree">
            <g id="!group" transform="translate(6.000000, 0.000000)">
                <path d="M61.3909935,71.1629925 C59.2115488,70.822726 57.193034,70.0123011 55.4437375,68.8211506 L49.307861,75.1426396 C49.307861,75.1426396 48.0602317,81.7959391 48.1738842,85.4091371 C48.2877066,89.0221658 50.8950888,99.8434856 50.8950888,99.8434856 L33.2072587,99.8434856 C34.3492201,94.9893401 35.9721236,88.9913706 36.2694208,83.6033841 C36.4253745,80.7717428 35.7025174,69.6203046 35.7025174,69.6203046 C33.7836543,70.1141453 29.8456036,67.6736838 27.0489213,65.6819226 C28.6725894,64.8517065 29.8759121,63.6625494 32,61.5384615 C34,57.5 34,58.5 38.5,60 C41.4079664,60.9693221 45.5,61 49,58.5 C51.3256817,66.4073178 54.5167707,69.5548956 61.3909935,71.1629925 Z M30.3431815,63.1884941 C31.5225174,62.0671743 32.5119228,60.7566836 33.2672278,59.3020305 L36.1555985,65.3291032 C36.1540695,65.3292724 34.5831506,66.0201354 30.3431815,63.1884941 Z M41.1430579,66.9099831 C39.648417,67.180203 37.1028726,62.5962775 35.2963243,58.8698816 C37.2994286,59.8876481 39.5607568,60.4734349 41.9649575,60.4734349 C42.5823166,60.4734349 43.1882934,60.4233503 43.7861158,60.3489002 C43.3214826,63.3309645 42.5028108,66.6624365 41.1430579,66.9099831 Z M47.4933282,69.8434856 C44.0361853,70.7996616 46.1058842,63.6673435 47.0968185,59.5382403 C47.81339,59.2729272 48.507027,58.9607445 49.1665174,58.5900169 C49.564556,61.5994924 50.8770811,64.3145516 52.8217452,66.4615905 C51.1370039,67.9521151 49.1972664,69.3725888 47.4933282,69.8434856 Z" id="Combined-Shape" fill="#8C6B30"/>
                <path d="M52.3757992,71.9818951 L55.4437375,68.8211506 C57.8056371,70.4294416 60.658332,71.3436548 63.7352741,71.3436548 C71.3411583,71.3436548 77.5973127,65.580203 78.3656988,58.2067682 C83.9684788,56.1373942 87.9697606,50.7671743 87.9697606,44.4649746 C87.9697606,40.7434856 86.5661776,37.3585448 84.2722317,34.7730964 C84.8928185,33.1516074 85.248556,31.3978003 85.248556,29.5580372 C85.248556,21.9824027 79.4765714,15.7514382 72.0736988,14.9861252 C69.9960154,9.40558376 64.6188417,5.42030457 58.2913359,5.42030457 C55.5215444,5.42030457 52.9401544,6.19695431 50.729112,7.52216582 C48.2144865,3.03705584 43.4076139,0 37.8826409,0 C30.5577452,0 24.4998456,5.3394247 23.375722,12.3196277 C22.7778996,12.2468697 22.1736216,12.1966159 21.5562625,12.1966159 C13.4320618,12.1966159 6.8446332,18.756176 6.8446332,26.8494078 C6.8446332,27.2458545 6.87385328,27.6341794 6.9047722,28.0225042 C2.78508108,30.6194585 0.0428108108,35.1854484 0.0428108108,40.4003384 C0.0428108108,45.0101523 2.18403089,49.1165821 5.52548263,51.8025381 C5.51087259,52.0663283 5.48488031,52.3282572 5.48488031,52.5954315 C5.48488031,60.6871404 12.0707799,67.2482234 20.1965097,67.2482234 C22.6316293,67.2482234 24.9221776,66.649577 26.9448185,65.6076142 C29.7470579,67.6123519 33.759722,70.1203046 35.7025174,69.6203046 C35.7025174,69.6203046 35.8832317,72.4081641 36.0444517,75.5499788 C35.8832317,72.4081641 35.7025174,69.6203046 35.7025174,69.6203046 C33.7836543,70.1141453 29.8456036,67.6736838 27.0489213,65.6819226 C28.6725894,64.8517065 29.8759121,63.6625494 32,61.5384615 C34,57.5 34,58.5 38.5,60 C41.4079664,60.9693221 45.5,61 49,58.5 C51.3256817,66.4073178 54.5167707,69.5548956 61.3909935,71.1629925 C59.2115488,70.822726 57.193034,70.0123011 55.4437375,68.8211506 L52.3757992,71.9818951 Z" id="Combined-Shape" fill="#2FBB44" fill-rule="nonzero"/>
                <path d="M37.8818329,50.5 C41.3129021,50.0098473 43.7636659,49.5196945 43.7636659,44.1280143 C43.7636659,40.9132299 41.3837372,40.7261729 39.8424439,41.1870979 C38.7987551,41.4992138 39.8424439,41.1870979 37.8818329,41.1870979 C35.921222,41.1870979 36.179971,41.3474573 34.9409165,41.1870979 C33.7485911,41.0327861 32,41.1870979 32,44.1280143 C32,49.5118535 34.4507637,50.0098473 37.8818329,50.5 Z" id="Oval" fill="#F63232"/>
                <path d="M59.8818329,31.5 C63.3129021,31.0098473 65.7636659,30.5196945 65.7636659,25.1280143 C65.7636659,21.9132299 63.3837372,21.7261729 61.8424439,22.1870979 C60.7987551,22.4992138 61.8424439,22.1870979 59.8818329,22.1870979 C57.921222,22.1870979 58.179971,22.3474573 56.9409165,22.1870979 C55.7485911,22.0327861 54,22.1870979 54,25.1280143 C54,30.5118535 56.4507637,31.0098473 59.8818329,31.5 Z" id="Oval-Copy" fill="#F63232"/>
                <path d="M20.8818329,31.5 C24.3129021,31.0098473 26.7636659,30.5196945 26.7636659,25.1280143 C26.7636659,21.9132299 24.3837372,21.7261729 22.8424439,22.1870979 C21.7987551,22.4992138 22.8424439,22.1870979 20.8818329,22.1870979 C18.921222,22.1870979 19.179971,22.3474573 17.9409165,22.1870979 C16.7485911,22.0327861 15,22.1870979 15,25.1280143 C15,30.5118535 17.4507637,31.0098473 20.8818329,31.5 Z" id="Oval-Copy-2" fill="#F63232"/>
            </g>
        </g>
    </g>
</symbol><symbol id="water" viewBox="0 0 100 100">
    <!-- Generator: sketchtool 48.1 (47250) - http://www.bohemiancoding.com/sketch -->
    <title>water</title>
    <desc>Created with sketchtool.</desc>
    
    <g id="Page-1" stroke="none" stroke-width="1" fill-rule="evenodd">
        <g id="water">
            <g id="!group" transform="translate(4.000000, 3.000000)">
                <path d="M11.0930781,14.2378264 C26.3053931,8.09473148 42.1360301,-5.03643891 55.5930781,6.73782645 C69.050126,18.5120918 70.2211192,14.2378264 83.0930781,14.2378264 C95.965037,14.2378264 90.3617168,36.4867284 88.0213606,47.7490692 C85.6810044,59.01141 69.2985113,69.2499016 77.4897579,75.3929966 C85.6810044,81.5360916 84.7302347,89.7268849 69.2985113,89.2149603 C53.8667878,88.7030357 17.2255866,91.9524689 20.7361209,82.7378264 C24.2466551,73.523184 14.6036123,77.9763181 11.0930781,67.7378264 C7.58254382,57.4993348 12.0290575,57.9188757 5.59307806,52.7378264 C-0.84290139,47.5567772 -3.83761886,31.8794072 8.449251,30.3436335 C20.7361209,28.8078597 -4.11923701,20.3809214 11.0930781,14.2378264 Z" id="Path-4" fill="#78ACDA"/>
                <path d="M30.1386254,34.7740702 L28.9332424,33.9385885 C32.2808035,29.1089273 35.3868901,28.0629079 42.8795087,27.7818048 C48.0287224,27.5886201 50.3742415,27.2453991 53.3901619,25.8664848 L54,27.2003047 C50.7573687,28.6828737 48.266606,29.0473483 42.9344937,29.247395 C35.8597369,29.512821 33.1536844,30.4241231 30.1386254,34.7740702 Z M28.6720042,31.8408278 L27.4666212,31.0053461 C30.8141823,26.1756849 33.9202689,25.1296655 41.4128875,24.8485624 C46.5621012,24.6553777 48.9076203,24.3121566 51.9235407,22.9332424 L52.5333788,24.2670622 C49.2907475,25.7496313 46.7999848,26.1141059 41.4678725,26.3141525 C34.3931157,26.5795785 31.6870632,27.4908807 28.6720042,31.8408278 Z M27.205383,28.9075853 L26,28.0721037 C29.3475611,23.2424425 32.4536477,22.1964231 39.9462663,21.91532 C45.09548,21.7221352 47.440999,21.3789142 50.4569195,20 L51.0667576,21.3338198 C47.8241263,22.8163889 45.3333636,23.1808635 40.0012513,23.3809101 C32.9264945,23.6463361 30.220442,24.5576383 27.205383,28.9075853 Z" id="Combined-Shape" fill="#386995" fill-rule="nonzero"/>
                <path d="M39.4477661,66.0735419 L38.1523452,65.1756527 C41.7499573,59.9852329 45.0880575,58.8610795 53.1403482,58.5589791 C58.67419,58.3513641 61.1949109,57.9825057 64.43611,56.5005915 L65.0915008,57.9340429 C61.6066564,59.5273546 58.9298426,59.9190542 53.1994404,60.1340436 C45.5962244,60.419296 42.6880393,61.3986692 39.4477661,66.0735419 Z M37.8715935,62.9211966 L36.5761726,62.0233075 C40.1737847,56.8328877 43.5118849,55.7087343 51.5641756,55.4066339 C57.0980174,55.1990189 59.6187383,54.8301605 62.8599374,53.3482462 L63.5153282,54.7816977 C60.0304838,56.3750094 57.3536699,56.766709 51.6232678,56.9816984 C44.0200517,57.2669507 41.1118667,58.246324 37.8715935,62.9211966 Z M36.2954209,59.7688514 L35,58.8709623 C38.597612,53.6805424 41.9357123,52.5563891 49.9880029,52.2542886 C55.5218447,52.0466736 58.0425657,51.6778152 61.2837648,50.195901 L61.9391556,51.6293524 C58.4543112,53.2226642 55.7774973,53.6143637 50.0470952,53.8293531 C42.4438791,54.1146055 39.535694,55.0939787 36.2954209,59.7688514 Z" id="Combined-Shape-Copy" fill="#386995" fill-rule="nonzero"/>
                <path d="M7.04382361,51.5 L5.79677571,51.5 C5.79677571,46.1409881 5.038773,41.9719732 3.5527864,39 C5.1114491,41.2987768 6.27512816,43.5027718 7.04382361,45.6119851 C7.81251905,43.5027718 8.97619812,41.2987768 10.5348608,39 C9.79032241,40.4890768 9.22853771,42.27866 8.85328253,44.3678635 C9.64733382,43.5331826 10.6027003,42.751838 11.7193821,42.0238298 C10.2333955,44.995803 8.2908715,46.1409881 8.2908715,51.5 L7.04382361,51.5 Z" id="Combined-Shape" fill="#79A646" fill-rule="nonzero"/>
                <path d="M65.3674474,19.2850787 L63.4501192,19.2850787 C63.4501192,11.0171615 62.2846949,4.58517894 60,0 C62.3964339,3.54656725 64.185583,6.94690468 65.3674474,10.2010123 C66.5493117,6.94690468 68.3384608,3.54656725 70.7348947,0 C69.5901717,2.29735707 68.7264313,5.0583373 68.1494789,8.28157361 C69.3703277,6.99382265 70.8391976,5.78835933 72.5560886,4.66518366 C70.2713937,9.2503626 67.2847755,11.0171615 67.2847755,19.2850787 L65.3674474,19.2850787 Z" id="Combined-Shape-Copy-2" fill="#79A646" fill-rule="nonzero"/>
                <path d="M76.3674474,19.2850787 L74.4501192,19.2850787 C74.4501192,11.0171615 73.2846949,4.58517894 71,0 C73.3964339,3.54656725 75.185583,6.94690468 76.3674474,10.2010123 C77.5493117,6.94690468 79.3384608,3.54656725 81.7348947,0 C80.5901717,2.29735707 79.7264313,5.0583373 79.1494789,8.28157361 C80.3703277,6.99382265 81.8391976,5.78835933 83.5560886,4.66518366 C81.2713937,9.2503626 78.2847755,11.0171615 78.2847755,19.2850787 L76.3674474,19.2850787 Z" id="Combined-Shape-Copy-3" fill="#79A646" fill-rule="nonzero"/>
                <path d="M73.3674474,30.2850787 L71.4501192,30.2850787 C71.4501192,22.0171615 70.2846949,15.5851789 68,11 C70.3964339,14.5465672 72.185583,17.9469047 73.3674474,21.2010123 C74.5493117,17.9469047 76.3384608,14.5465672 78.7348947,11 C77.5901717,13.2973571 76.7264313,16.0583373 76.1494789,19.2815736 C77.3703277,17.9938226 78.8391976,16.7883593 80.5560886,15.6651837 C78.2713937,20.2503626 75.2847755,22.0171615 75.2847755,30.2850787 L73.3674474,30.2850787 Z" id="Combined-Shape-Copy-4" fill="#79A646" fill-rule="nonzero"/>
                <path d="M74.4736068,86.2763932 L73.9472136,86.2763932 C73.9472136,84.0142929 73.627252,82.2545039 73,81 C73.6579294,81.97034 74.1491316,82.9006716 74.4736068,83.7909947 C74.798082,82.9006716 75.2892842,81.97034 75.9472136,81 C75.6329354,81.6285564 75.3957996,82.3839599 75.2374001,83.2658367 C75.5725783,82.9135083 75.9758494,82.5836938 76.4472136,82.2763932 C75.8199616,83.5308971 75,84.0142929 75,86.2763932 L74.4736068,86.2763932 Z" id="Combined-Shape-Copy-5" fill="#7ED321" fill-rule="nonzero"/>
            </g>
        </g>
    </g>
</symbol></svg>